<mxfile host="app.diagrams.net" agent="Mozilla/5.0 (Macintosh; Intel Mac OS X 10_15_7) AppleWebKit/537.36 (KHTML, like Gecko) Chrome/133.0.0.0 Safari/537.36" version="26.1.0">
  <diagram name="Page-1" id="MynIsumC3mEAYIClX9I6">
    <mxGraphModel dx="3280" dy="2580" grid="0" gridSize="10" guides="1" tooltips="1" connect="1" arrows="1" fold="1" page="0" pageScale="1" pageWidth="690" pageHeight="980" math="0" shadow="0">
      <root>
        <mxCell id="0" />
        <mxCell id="1" parent="0" />
        <mxCell id="eiJciB9B7HkE7zY7H2Gf-1" value="" style="rounded=0;whiteSpace=wrap;html=1;" parent="1" vertex="1">
          <mxGeometry x="1520" y="230" width="180" height="80" as="geometry" />
        </mxCell>
        <mxCell id="eiJciB9B7HkE7zY7H2Gf-4" value="MEMBER" style="text;html=1;align=center;verticalAlign=middle;whiteSpace=wrap;rounded=0;" parent="1" vertex="1">
          <mxGeometry x="1580" y="252.5" width="60" height="35" as="geometry" />
        </mxCell>
        <mxCell id="9V06vK_lk5y7Zd8M0cyD-3" value="&lt;u&gt;MemberID&lt;/u&gt;" style="ellipse;whiteSpace=wrap;html=1;" parent="1" vertex="1">
          <mxGeometry x="1330" y="240" width="110" height="60" as="geometry" />
        </mxCell>
        <mxCell id="9V06vK_lk5y7Zd8M0cyD-4" value="Name" style="ellipse;whiteSpace=wrap;html=1;" parent="1" vertex="1">
          <mxGeometry x="1360" y="100" width="110" height="60" as="geometry" />
        </mxCell>
        <mxCell id="9V06vK_lk5y7Zd8M0cyD-5" value="Address" style="ellipse;whiteSpace=wrap;html=1;" parent="1" vertex="1">
          <mxGeometry x="1790" y="240" width="110" height="60" as="geometry" />
        </mxCell>
        <mxCell id="9V06vK_lk5y7Zd8M0cyD-8" value="MaxRentals" style="ellipse;whiteSpace=wrap;html=1;" parent="1" vertex="1">
          <mxGeometry x="1757.5" y="130" width="110" height="60" as="geometry" />
        </mxCell>
        <mxCell id="9V06vK_lk5y7Zd8M0cyD-10" value="" style="endArrow=none;html=1;rounded=0;entryX=0;entryY=0.5;entryDx=0;entryDy=0;exitX=1;exitY=0.5;exitDx=0;exitDy=0;" parent="1" source="9V06vK_lk5y7Zd8M0cyD-3" target="eiJciB9B7HkE7zY7H2Gf-1" edge="1">
          <mxGeometry width="50" height="50" relative="1" as="geometry">
            <mxPoint x="1470" y="320" as="sourcePoint" />
            <mxPoint x="1520" y="270" as="targetPoint" />
          </mxGeometry>
        </mxCell>
        <mxCell id="9V06vK_lk5y7Zd8M0cyD-12" value="" style="endArrow=none;html=1;rounded=0;entryX=0;entryY=0;entryDx=0;entryDy=0;exitX=1;exitY=1;exitDx=0;exitDy=0;" parent="1" source="9V06vK_lk5y7Zd8M0cyD-4" target="eiJciB9B7HkE7zY7H2Gf-1" edge="1">
          <mxGeometry width="50" height="50" relative="1" as="geometry">
            <mxPoint x="1470" y="200" as="sourcePoint" />
            <mxPoint x="1550" y="200" as="targetPoint" />
          </mxGeometry>
        </mxCell>
        <mxCell id="9V06vK_lk5y7Zd8M0cyD-13" value="" style="endArrow=none;html=1;rounded=0;entryX=0.5;entryY=0;entryDx=0;entryDy=0;exitX=0.5;exitY=1;exitDx=0;exitDy=0;" parent="1" source="8cQpjbH3px4sbL6R60Pa-1" target="eiJciB9B7HkE7zY7H2Gf-1" edge="1">
          <mxGeometry width="50" height="50" relative="1" as="geometry">
            <mxPoint x="1610" y="140" as="sourcePoint" />
            <mxPoint x="1646" y="219" as="targetPoint" />
          </mxGeometry>
        </mxCell>
        <mxCell id="9V06vK_lk5y7Zd8M0cyD-14" value="" style="endArrow=none;html=1;rounded=0;entryX=1;entryY=0.5;entryDx=0;entryDy=0;exitX=0;exitY=0.5;exitDx=0;exitDy=0;" parent="1" source="9V06vK_lk5y7Zd8M0cyD-5" target="eiJciB9B7HkE7zY7H2Gf-1" edge="1">
          <mxGeometry width="50" height="50" relative="1" as="geometry">
            <mxPoint x="1735" y="160" as="sourcePoint" />
            <mxPoint x="1747.5" y="240" as="targetPoint" />
          </mxGeometry>
        </mxCell>
        <mxCell id="9V06vK_lk5y7Zd8M0cyD-17" value="RENTS" style="rhombus;whiteSpace=wrap;html=1;" parent="1" vertex="1">
          <mxGeometry x="1120" y="420" width="160" height="80" as="geometry" />
        </mxCell>
        <mxCell id="9V06vK_lk5y7Zd8M0cyD-18" value="" style="rounded=0;whiteSpace=wrap;html=1;" parent="1" vertex="1">
          <mxGeometry x="1127.23" y="765" width="180" height="80" as="geometry" />
        </mxCell>
        <mxCell id="9V06vK_lk5y7Zd8M0cyD-19" value="RENTAL" style="text;html=1;align=center;verticalAlign=middle;whiteSpace=wrap;rounded=0;" parent="1" vertex="1">
          <mxGeometry x="1187.23" y="787.5" width="60" height="35" as="geometry" />
        </mxCell>
        <mxCell id="9V06vK_lk5y7Zd8M0cyD-20" value="DateRented" style="ellipse;whiteSpace=wrap;html=1;" parent="1" vertex="1">
          <mxGeometry x="1320" y="660" width="110" height="60" as="geometry" />
        </mxCell>
        <mxCell id="9V06vK_lk5y7Zd8M0cyD-21" value="&lt;u&gt;RentalID&lt;/u&gt;" style="ellipse;whiteSpace=wrap;html=1;" parent="1" vertex="1">
          <mxGeometry x="960" y="815" width="110" height="60" as="geometry" />
        </mxCell>
        <mxCell id="9V06vK_lk5y7Zd8M0cyD-23" value="MemberID" style="ellipse;whiteSpace=wrap;html=1;" parent="1" vertex="1">
          <mxGeometry x="992.23" y="900" width="110" height="60" as="geometry" />
        </mxCell>
        <mxCell id="9V06vK_lk5y7Zd8M0cyD-24" value="DueDate" style="ellipse;whiteSpace=wrap;html=1;" parent="1" vertex="1">
          <mxGeometry x="1347.5" y="850" width="110" height="60" as="geometry" />
        </mxCell>
        <mxCell id="9V06vK_lk5y7Zd8M0cyD-25" value="" style="endArrow=none;html=1;rounded=0;exitX=0;exitY=1;exitDx=0;exitDy=0;entryX=0.75;entryY=0;entryDx=0;entryDy=0;" parent="1" source="9V06vK_lk5y7Zd8M0cyD-20" target="9V06vK_lk5y7Zd8M0cyD-18" edge="1">
          <mxGeometry width="50" height="50" relative="1" as="geometry">
            <mxPoint x="992.5" y="810" as="sourcePoint" />
            <mxPoint x="1280" y="690" as="targetPoint" />
          </mxGeometry>
        </mxCell>
        <mxCell id="9V06vK_lk5y7Zd8M0cyD-26" value="" style="endArrow=none;html=1;rounded=0;entryX=0;entryY=0.5;entryDx=0;entryDy=0;exitX=1;exitY=0.5;exitDx=0;exitDy=0;" parent="1" source="9V06vK_lk5y7Zd8M0cyD-21" target="9V06vK_lk5y7Zd8M0cyD-18" edge="1">
          <mxGeometry width="50" height="50" relative="1" as="geometry">
            <mxPoint x="1077.23" y="750" as="sourcePoint" />
            <mxPoint x="1157.23" y="750" as="targetPoint" />
          </mxGeometry>
        </mxCell>
        <mxCell id="9V06vK_lk5y7Zd8M0cyD-27" value="" style="endArrow=none;html=1;rounded=0;exitX=1;exitY=0;exitDx=0;exitDy=0;entryX=0;entryY=1;entryDx=0;entryDy=0;" parent="1" source="9V06vK_lk5y7Zd8M0cyD-23" target="9V06vK_lk5y7Zd8M0cyD-18" edge="1">
          <mxGeometry width="50" height="50" relative="1" as="geometry">
            <mxPoint x="1197.23" y="740" as="sourcePoint" />
            <mxPoint x="1137.23" y="820" as="targetPoint" />
          </mxGeometry>
        </mxCell>
        <mxCell id="9V06vK_lk5y7Zd8M0cyD-28" value="" style="endArrow=none;html=1;rounded=0;entryX=0;entryY=0.25;entryDx=0;entryDy=0;exitX=1;exitY=0.5;exitDx=0;exitDy=0;" parent="1" source="8cQpjbH3px4sbL6R60Pa-47" target="9V06vK_lk5y7Zd8M0cyD-18" edge="1">
          <mxGeometry width="50" height="50" relative="1" as="geometry">
            <mxPoint x="1050" y="767.5" as="sourcePoint" />
            <mxPoint x="1354.73" y="790" as="targetPoint" />
          </mxGeometry>
        </mxCell>
        <mxCell id="9V06vK_lk5y7Zd8M0cyD-31" value="" style="endArrow=none;html=1;rounded=0;entryX=0;entryY=0.5;entryDx=0;entryDy=0;exitX=1;exitY=1;exitDx=0;exitDy=0;" parent="1" source="9V06vK_lk5y7Zd8M0cyD-18" target="9V06vK_lk5y7Zd8M0cyD-24" edge="1">
          <mxGeometry width="50" height="50" relative="1" as="geometry">
            <mxPoint x="1242.5" y="890" as="sourcePoint" />
            <mxPoint x="1298.5" y="969" as="targetPoint" />
          </mxGeometry>
        </mxCell>
        <mxCell id="9V06vK_lk5y7Zd8M0cyD-34" value="" style="endArrow=none;html=1;rounded=0;entryX=0;entryY=0.5;entryDx=0;entryDy=0;exitX=1;exitY=0.25;exitDx=0;exitDy=0;" parent="1" source="9V06vK_lk5y7Zd8M0cyD-18" target="8cQpjbH3px4sbL6R60Pa-21" edge="1">
          <mxGeometry width="50" height="50" relative="1" as="geometry">
            <mxPoint x="1222.5" y="805" as="sourcePoint" />
            <mxPoint x="1410" y="750" as="targetPoint" />
          </mxGeometry>
        </mxCell>
        <mxCell id="9V06vK_lk5y7Zd8M0cyD-40" value="" style="endArrow=none;html=1;rounded=0;entryX=1;entryY=0;entryDx=0;entryDy=0;exitX=0;exitY=1;exitDx=0;exitDy=0;" parent="1" source="9V06vK_lk5y7Zd8M0cyD-8" target="eiJciB9B7HkE7zY7H2Gf-1" edge="1">
          <mxGeometry width="50" height="50" relative="1" as="geometry">
            <mxPoint x="1710" y="130" as="sourcePoint" />
            <mxPoint x="1710" y="220" as="targetPoint" />
          </mxGeometry>
        </mxCell>
        <mxCell id="9V06vK_lk5y7Zd8M0cyD-50" value="&lt;u&gt;ReservationID&lt;/u&gt;" style="ellipse;whiteSpace=wrap;html=1;" parent="1" vertex="1">
          <mxGeometry x="1690" y="460" width="110" height="60" as="geometry" />
        </mxCell>
        <mxCell id="9V06vK_lk5y7Zd8M0cyD-51" value="" style="endArrow=none;html=1;rounded=0;entryX=1;entryY=0.5;entryDx=0;entryDy=0;exitX=0;exitY=0.5;exitDx=0;exitDy=0;" parent="1" source="uRNuQ10hfMt6JlkLjQdu-1" target="9V06vK_lk5y7Zd8M0cyD-50" edge="1">
          <mxGeometry width="50" height="50" relative="1" as="geometry">
            <mxPoint x="1870" y="450" as="sourcePoint" />
            <mxPoint x="1640" y="367.5" as="targetPoint" />
          </mxGeometry>
        </mxCell>
        <mxCell id="9V06vK_lk5y7Zd8M0cyD-52" value="MemberID" style="ellipse;whiteSpace=wrap;html=1;" parent="1" vertex="1">
          <mxGeometry x="1695.5299999999997" y="540" width="110" height="60" as="geometry" />
        </mxCell>
        <mxCell id="9V06vK_lk5y7Zd8M0cyD-53" value="DateReserved" style="ellipse;whiteSpace=wrap;html=1;" parent="1" vertex="1">
          <mxGeometry x="2150" y="450" width="110" height="60" as="geometry" />
        </mxCell>
        <mxCell id="9V06vK_lk5y7Zd8M0cyD-54" value="MovieID" style="ellipse;whiteSpace=wrap;html=1;" parent="1" vertex="1">
          <mxGeometry x="2090" y="540" width="110" height="60" as="geometry" />
        </mxCell>
        <mxCell id="9V06vK_lk5y7Zd8M0cyD-55" value="" style="endArrow=none;html=1;rounded=0;entryX=0.75;entryY=1;entryDx=0;entryDy=0;exitX=0.5;exitY=0;exitDx=0;exitDy=0;" parent="1" source="9V06vK_lk5y7Zd8M0cyD-54" target="uRNuQ10hfMt6JlkLjQdu-1" edge="1">
          <mxGeometry width="50" height="50" relative="1" as="geometry">
            <mxPoint x="1980" y="647.5" as="sourcePoint" />
            <mxPoint x="1990" y="470" as="targetPoint" />
          </mxGeometry>
        </mxCell>
        <mxCell id="9V06vK_lk5y7Zd8M0cyD-56" value="" style="endArrow=none;html=1;rounded=0;entryX=1;entryY=0;entryDx=0;entryDy=0;exitX=0;exitY=1;exitDx=0;exitDy=0;" parent="1" source="uRNuQ10hfMt6JlkLjQdu-1" target="9V06vK_lk5y7Zd8M0cyD-52" edge="1">
          <mxGeometry width="50" height="50" relative="1" as="geometry">
            <mxPoint x="1910" y="470" as="sourcePoint" />
            <mxPoint x="1820" y="576.17" as="targetPoint" />
          </mxGeometry>
        </mxCell>
        <mxCell id="9V06vK_lk5y7Zd8M0cyD-57" value="" style="endArrow=none;html=1;rounded=0;entryX=1;entryY=0.5;entryDx=0;entryDy=0;" parent="1" target="uRNuQ10hfMt6JlkLjQdu-1" edge="1">
          <mxGeometry width="50" height="50" relative="1" as="geometry">
            <mxPoint x="2150" y="480" as="sourcePoint" />
            <mxPoint x="2030" y="450" as="targetPoint" />
          </mxGeometry>
        </mxCell>
        <mxCell id="9V06vK_lk5y7Zd8M0cyD-58" value="FROM" style="rhombus;whiteSpace=wrap;html=1;" parent="1" vertex="1">
          <mxGeometry x="1102.23" y="1053.75" width="150" height="80" as="geometry" />
        </mxCell>
        <mxCell id="9V06vK_lk5y7Zd8M0cyD-65" value="" style="rounded=0;whiteSpace=wrap;html=1;" parent="1" vertex="1">
          <mxGeometry x="1044.5" y="1312.4999999999998" width="177.5" height="75.36" as="geometry" />
        </mxCell>
        <mxCell id="9V06vK_lk5y7Zd8M0cyD-66" value="STORE" style="text;html=1;align=center;verticalAlign=middle;whiteSpace=wrap;rounded=0;" parent="1" vertex="1">
          <mxGeometry x="1099.5" y="1332.6799999999998" width="70" height="35" as="geometry" />
        </mxCell>
        <mxCell id="9V06vK_lk5y7Zd8M0cyD-67" value="&lt;u&gt;StoreID&lt;/u&gt;" style="ellipse;whiteSpace=wrap;html=1;" parent="1" vertex="1">
          <mxGeometry x="872" y="1300.36" width="110" height="60" as="geometry" />
        </mxCell>
        <mxCell id="9V06vK_lk5y7Zd8M0cyD-68" value="" style="endArrow=none;html=1;rounded=0;entryX=1;entryY=0.5;entryDx=0;entryDy=0;exitX=0;exitY=0.5;exitDx=0;exitDy=0;" parent="1" source="9V06vK_lk5y7Zd8M0cyD-65" target="9V06vK_lk5y7Zd8M0cyD-67" edge="1">
          <mxGeometry width="50" height="50" relative="1" as="geometry">
            <mxPoint x="1077" y="1340.86" as="sourcePoint" />
            <mxPoint x="842" y="1217.8600000000001" as="targetPoint" />
          </mxGeometry>
        </mxCell>
        <mxCell id="9V06vK_lk5y7Zd8M0cyD-69" value="Name" style="ellipse;whiteSpace=wrap;html=1;" parent="1" vertex="1">
          <mxGeometry x="1277.54" y="1283.75" width="102.5" height="60" as="geometry" />
        </mxCell>
        <mxCell id="9V06vK_lk5y7Zd8M0cyD-71" value="Address" style="ellipse;whiteSpace=wrap;html=1;" parent="1" vertex="1">
          <mxGeometry x="872" y="1382.4999999999998" width="110" height="60" as="geometry" />
        </mxCell>
        <mxCell id="9V06vK_lk5y7Zd8M0cyD-72" value="" style="endArrow=none;html=1;rounded=0;entryX=0;entryY=0.5;entryDx=0;entryDy=0;exitX=1;exitY=0;exitDx=0;exitDy=0;" parent="1" source="9V06vK_lk5y7Zd8M0cyD-71" target="9V06vK_lk5y7Zd8M0cyD-65" edge="1">
          <mxGeometry width="50" height="50" relative="1" as="geometry">
            <mxPoint x="946" y="1409.36" as="sourcePoint" />
            <mxPoint x="1312" y="1320.36" as="targetPoint" />
          </mxGeometry>
        </mxCell>
        <mxCell id="9V06vK_lk5y7Zd8M0cyD-73" value="" style="endArrow=none;html=1;rounded=0;entryX=0;entryY=0.5;entryDx=0;entryDy=0;exitX=1;exitY=0.25;exitDx=0;exitDy=0;" parent="1" source="9V06vK_lk5y7Zd8M0cyD-65" target="9V06vK_lk5y7Zd8M0cyD-69" edge="1">
          <mxGeometry width="50" height="50" relative="1" as="geometry">
            <mxPoint x="1172" y="1325.36" as="sourcePoint" />
            <mxPoint x="1022" y="1426.53" as="targetPoint" />
          </mxGeometry>
        </mxCell>
        <mxCell id="9V06vK_lk5y7Zd8M0cyD-81" value="INVENTORY" style="rounded=0;whiteSpace=wrap;html=1;" parent="1" vertex="1">
          <mxGeometry x="1554.9999999999998" y="1700" width="180" height="80" as="geometry" />
        </mxCell>
        <mxCell id="9V06vK_lk5y7Zd8M0cyD-84" value="&lt;u&gt;InventoryID&lt;/u&gt;" style="ellipse;whiteSpace=wrap;html=1;" parent="1" vertex="1">
          <mxGeometry x="1767.5000000000002" y="1765" width="110" height="60" as="geometry" />
        </mxCell>
        <mxCell id="9V06vK_lk5y7Zd8M0cyD-86" value="MovieID" style="ellipse;whiteSpace=wrap;html=1;" parent="1" vertex="1">
          <mxGeometry x="1435" y="1860" width="110" height="60" as="geometry" />
        </mxCell>
        <mxCell id="9V06vK_lk5y7Zd8M0cyD-87" value="StoreID" style="ellipse;whiteSpace=wrap;html=1;" parent="1" vertex="1">
          <mxGeometry x="1357.5" y="1780" width="110" height="60" as="geometry" />
        </mxCell>
        <mxCell id="9V06vK_lk5y7Zd8M0cyD-89" value="" style="endArrow=none;html=1;rounded=0;exitX=0;exitY=0.5;exitDx=0;exitDy=0;entryX=1;entryY=0.5;entryDx=0;entryDy=0;" parent="1" source="9V06vK_lk5y7Zd8M0cyD-84" target="9V06vK_lk5y7Zd8M0cyD-81" edge="1">
          <mxGeometry width="50" height="50" relative="1" as="geometry">
            <mxPoint x="1507.5" y="1770" as="sourcePoint" />
            <mxPoint x="1668.5000000000002" y="1720" as="targetPoint" />
          </mxGeometry>
        </mxCell>
        <mxCell id="9V06vK_lk5y7Zd8M0cyD-90" value="" style="endArrow=none;html=1;rounded=0;entryX=0.25;entryY=1;entryDx=0;entryDy=0;exitX=0.5;exitY=0;exitDx=0;exitDy=0;" parent="1" source="9V06vK_lk5y7Zd8M0cyD-86" target="9V06vK_lk5y7Zd8M0cyD-81" edge="1">
          <mxGeometry width="50" height="50" relative="1" as="geometry">
            <mxPoint x="1627.5" y="1760" as="sourcePoint" />
            <mxPoint x="1683.5000000000002" y="1789" as="targetPoint" />
          </mxGeometry>
        </mxCell>
        <mxCell id="9V06vK_lk5y7Zd8M0cyD-92" value="" style="endArrow=none;html=1;rounded=0;entryX=1;entryY=0.5;entryDx=0;entryDy=0;exitX=0;exitY=1;exitDx=0;exitDy=0;" parent="1" source="9V06vK_lk5y7Zd8M0cyD-81" target="9V06vK_lk5y7Zd8M0cyD-87" edge="1">
          <mxGeometry width="50" height="50" relative="1" as="geometry">
            <mxPoint x="1757.5000000000002" y="1970" as="sourcePoint" />
            <mxPoint x="1813.5000000000002" y="2049" as="targetPoint" />
          </mxGeometry>
        </mxCell>
        <mxCell id="9V06vK_lk5y7Zd8M0cyD-93" value="CopiesAvailable" style="ellipse;whiteSpace=wrap;html=1;" parent="1" vertex="1">
          <mxGeometry x="1350.0000000000002" y="1700" width="110" height="60" as="geometry" />
        </mxCell>
        <mxCell id="9V06vK_lk5y7Zd8M0cyD-94" value="" style="endArrow=none;html=1;rounded=0;exitX=0;exitY=0.5;exitDx=0;exitDy=0;entryX=1;entryY=0.5;entryDx=0;entryDy=0;" parent="1" source="9V06vK_lk5y7Zd8M0cyD-81" target="9V06vK_lk5y7Zd8M0cyD-93" edge="1">
          <mxGeometry width="50" height="50" relative="1" as="geometry">
            <mxPoint x="1737.5000000000002" y="1885" as="sourcePoint" />
            <mxPoint x="1405" y="1640" as="targetPoint" />
          </mxGeometry>
        </mxCell>
        <mxCell id="9V06vK_lk5y7Zd8M0cyD-123" value="" style="rounded=0;whiteSpace=wrap;html=1;" parent="1" vertex="1">
          <mxGeometry x="2129.4700000000003" y="1162.8599999999994" width="180" height="80" as="geometry" />
        </mxCell>
        <mxCell id="9V06vK_lk5y7Zd8M0cyD-124" value="MOVIE" style="text;html=1;align=center;verticalAlign=middle;whiteSpace=wrap;rounded=0;" parent="1" vertex="1">
          <mxGeometry x="2190" y="1182.86" width="59.47" height="37.5" as="geometry" />
        </mxCell>
        <mxCell id="9V06vK_lk5y7Zd8M0cyD-126" value="&lt;u&gt;MovieID&lt;/u&gt;" style="ellipse;whiteSpace=wrap;html=1;" parent="1" vertex="1">
          <mxGeometry x="2179.4700000000003" y="999.9999999999995" width="110" height="60" as="geometry" />
        </mxCell>
        <mxCell id="9V06vK_lk5y7Zd8M0cyD-128" value="Studio" style="ellipse;whiteSpace=wrap;html=1;" parent="1" vertex="1">
          <mxGeometry x="2390.0000000000005" y="1269.9999999999995" width="110" height="60" as="geometry" />
        </mxCell>
        <mxCell id="9V06vK_lk5y7Zd8M0cyD-129" value="Title" style="ellipse;whiteSpace=wrap;html=1;" parent="1" vertex="1">
          <mxGeometry x="2309.47" y="1332.6799999999996" width="110" height="60" as="geometry" />
        </mxCell>
        <mxCell id="9V06vK_lk5y7Zd8M0cyD-130" value="" style="endArrow=none;html=1;rounded=0;exitX=0.437;exitY=0.974;exitDx=0;exitDy=0;exitPerimeter=0;entryX=0.5;entryY=0;entryDx=0;entryDy=0;" parent="1" source="9V06vK_lk5y7Zd8M0cyD-123" target="8cQpjbH3px4sbL6R60Pa-13" edge="1">
          <mxGeometry width="50" height="50" relative="1" as="geometry">
            <mxPoint x="2868.4100000000008" y="1430" as="sourcePoint" />
            <mxPoint x="2194" y="1353" as="targetPoint" />
          </mxGeometry>
        </mxCell>
        <mxCell id="9V06vK_lk5y7Zd8M0cyD-131" value="" style="endArrow=none;html=1;rounded=0;entryX=0.5;entryY=0;entryDx=0;entryDy=0;exitX=0.5;exitY=1;exitDx=0;exitDy=0;" parent="1" source="9V06vK_lk5y7Zd8M0cyD-126" target="9V06vK_lk5y7Zd8M0cyD-123" edge="1">
          <mxGeometry width="50" height="50" relative="1" as="geometry">
            <mxPoint x="2275" y="1048.749999999999" as="sourcePoint" />
            <mxPoint x="2189.4700000000003" y="1272.8599999999994" as="targetPoint" />
          </mxGeometry>
        </mxCell>
        <mxCell id="9V06vK_lk5y7Zd8M0cyD-132" value="" style="endArrow=none;html=1;rounded=0;entryX=1;entryY=1;entryDx=0;entryDy=0;exitX=0;exitY=0;exitDx=0;exitDy=0;" parent="1" source="9V06vK_lk5y7Zd8M0cyD-128" target="9V06vK_lk5y7Zd8M0cyD-123" edge="1">
          <mxGeometry width="50" height="50" relative="1" as="geometry">
            <mxPoint x="2128.9400000000005" y="1354.36" as="sourcePoint" />
            <mxPoint x="2285.4700000000003" y="1291.8599999999994" as="targetPoint" />
          </mxGeometry>
        </mxCell>
        <mxCell id="9V06vK_lk5y7Zd8M0cyD-133" value="" style="endArrow=none;html=1;rounded=0;entryX=0.75;entryY=0;entryDx=0;entryDy=0;" parent="1" source="8cQpjbH3px4sbL6R60Pa-14" target="9V06vK_lk5y7Zd8M0cyD-123" edge="1">
          <mxGeometry width="50" height="50" relative="1" as="geometry">
            <mxPoint x="2275" y="1077.4999999999995" as="sourcePoint" />
            <mxPoint x="2386.9700000000003" y="1312.8599999999994" as="targetPoint" />
          </mxGeometry>
        </mxCell>
        <mxCell id="9V06vK_lk5y7Zd8M0cyD-134" value="" style="endArrow=none;html=1;rounded=0;exitX=0.708;exitY=1.021;exitDx=0;exitDy=0;entryX=0.5;entryY=0;entryDx=0;entryDy=0;exitPerimeter=0;" parent="1" source="9V06vK_lk5y7Zd8M0cyD-123" target="9V06vK_lk5y7Zd8M0cyD-129" edge="1">
          <mxGeometry width="50" height="50" relative="1" as="geometry">
            <mxPoint x="2359.4700000000003" y="1472.8599999999994" as="sourcePoint" />
            <mxPoint x="1842.4300000000005" y="1314.36" as="targetPoint" />
          </mxGeometry>
        </mxCell>
        <mxCell id="9V06vK_lk5y7Zd8M0cyD-136" value="Director" style="ellipse;whiteSpace=wrap;html=1;" parent="1" vertex="1">
          <mxGeometry x="2440.0000000000005" y="1136.2499999999995" width="110" height="60" as="geometry" />
        </mxCell>
        <mxCell id="9V06vK_lk5y7Zd8M0cyD-137" value="" style="endArrow=none;html=1;rounded=0;entryX=0;entryY=0.5;entryDx=0;entryDy=0;exitX=1;exitY=0.25;exitDx=0;exitDy=0;" parent="1" source="9V06vK_lk5y7Zd8M0cyD-123" target="9V06vK_lk5y7Zd8M0cyD-136" edge="1">
          <mxGeometry width="50" height="50" relative="1" as="geometry">
            <mxPoint x="2339.4700000000003" y="1387.8599999999994" as="sourcePoint" />
            <mxPoint x="2339.4700000000003" y="1462.8599999999994" as="targetPoint" />
          </mxGeometry>
        </mxCell>
        <mxCell id="9V06vK_lk5y7Zd8M0cyD-143" value="" style="endArrow=none;html=1;rounded=0;entryX=0;entryY=0.5;entryDx=0;entryDy=0;exitX=1;exitY=0.5;exitDx=0;exitDy=0;" parent="1" source="9V06vK_lk5y7Zd8M0cyD-123" target="8cQpjbH3px4sbL6R60Pa-11" edge="1">
          <mxGeometry width="50" height="50" relative="1" as="geometry">
            <mxPoint x="2109.4700000000003" y="1232.8599999999994" as="sourcePoint" />
            <mxPoint x="2430.0000000000005" y="1288.7499999999995" as="targetPoint" />
          </mxGeometry>
        </mxCell>
        <mxCell id="9V06vK_lk5y7Zd8M0cyD-150" value="TRACKS" style="rhombus;whiteSpace=wrap;html=1;" parent="1" vertex="1">
          <mxGeometry x="1940" y="1502.68" width="150" height="80" as="geometry" />
        </mxCell>
        <mxCell id="9V06vK_lk5y7Zd8M0cyD-168" value="" style="rounded=0;whiteSpace=wrap;html=1;" parent="1" vertex="1">
          <mxGeometry x="1588.0299999999997" y="1222.4999999999995" width="180" height="80" as="geometry" />
        </mxCell>
        <mxCell id="9V06vK_lk5y7Zd8M0cyD-169" value="PLAYER" style="text;html=1;align=center;verticalAlign=middle;whiteSpace=wrap;rounded=0;" parent="1" vertex="1">
          <mxGeometry x="1643.0299999999997" y="1241.2499999999995" width="70" height="42.5" as="geometry" />
        </mxCell>
        <mxCell id="9V06vK_lk5y7Zd8M0cyD-171" value="StoreID" style="ellipse;whiteSpace=wrap;html=1;" parent="1" vertex="1">
          <mxGeometry x="1452.5000000000002" y="1116.2499999999995" width="110" height="60" as="geometry" />
        </mxCell>
        <mxCell id="9V06vK_lk5y7Zd8M0cyD-172" value="Status" style="ellipse;whiteSpace=wrap;html=1;" parent="1" vertex="1">
          <mxGeometry x="1414.4699999999998" y="1323.75" width="105.53" height="60" as="geometry" />
        </mxCell>
        <mxCell id="9V06vK_lk5y7Zd8M0cyD-173" value="&lt;u&gt;PlayerID&lt;/u&gt;" style="ellipse;whiteSpace=wrap;html=1;direction=west;" parent="1" vertex="1">
          <mxGeometry x="1829.9999999999998" y="1133.7499999999995" width="110" height="60" as="geometry" />
        </mxCell>
        <mxCell id="9V06vK_lk5y7Zd8M0cyD-176" value="" style="endArrow=none;html=1;rounded=0;entryX=0;entryY=0;entryDx=0;entryDy=0;exitX=0.5;exitY=1;exitDx=0;exitDy=0;" parent="1" source="9V06vK_lk5y7Zd8M0cyD-171" target="9V06vK_lk5y7Zd8M0cyD-168" edge="1">
          <mxGeometry width="50" height="50" relative="1" as="geometry">
            <mxPoint x="1533.0299999999997" y="1203.7499999999995" as="sourcePoint" />
            <mxPoint x="1613.0299999999997" y="1203.7499999999995" as="targetPoint" />
          </mxGeometry>
        </mxCell>
        <mxCell id="9V06vK_lk5y7Zd8M0cyD-178" value="" style="endArrow=none;html=1;rounded=0;entryX=0;entryY=1;entryDx=0;entryDy=0;exitX=1;exitY=0;exitDx=0;exitDy=0;" parent="1" source="9V06vK_lk5y7Zd8M0cyD-172" target="9V06vK_lk5y7Zd8M0cyD-168" edge="1">
          <mxGeometry width="50" height="50" relative="1" as="geometry">
            <mxPoint x="1690" y="1386.25" as="sourcePoint" />
            <mxPoint x="1810.5299999999997" y="1243.7499999999995" as="targetPoint" />
          </mxGeometry>
        </mxCell>
        <mxCell id="9V06vK_lk5y7Zd8M0cyD-179" value="" style="endArrow=none;html=1;rounded=0;entryX=0;entryY=0.5;entryDx=0;entryDy=0;exitX=1;exitY=0.5;exitDx=0;exitDy=0;" parent="1" source="9V06vK_lk5y7Zd8M0cyD-168" target="8cQpjbH3px4sbL6R60Pa-20" edge="1">
          <mxGeometry width="50" height="50" relative="1" as="geometry">
            <mxPoint x="1783.0299999999997" y="1403.7499999999995" as="sourcePoint" />
            <mxPoint x="1840.0000000000077" y="1264.375" as="targetPoint" />
          </mxGeometry>
        </mxCell>
        <mxCell id="9V06vK_lk5y7Zd8M0cyD-193" value="MANAGES" style="rhombus;whiteSpace=wrap;html=1;" parent="1" vertex="1">
          <mxGeometry x="1232.23" y="1581.2499999999995" width="150" height="80" as="geometry" />
        </mxCell>
        <mxCell id="9V06vK_lk5y7Zd8M0cyD-198" value="INCLUDES" style="rhombus;whiteSpace=wrap;html=1;" parent="1" vertex="1">
          <mxGeometry x="1890" y="777.5000000000001" width="150" height="80" as="geometry" />
        </mxCell>
        <mxCell id="0aE-7zYEgWbalgsKcjMy-4" value="" style="endArrow=none;html=1;rounded=0;exitX=1;exitY=0;exitDx=0;exitDy=0;entryX=-0.007;entryY=0.605;entryDx=0;entryDy=0;entryPerimeter=0;" parent="1" source="9V06vK_lk5y7Zd8M0cyD-123" target="8cQpjbH3px4sbL6R60Pa-12" edge="1">
          <mxGeometry width="50" height="50" relative="1" as="geometry">
            <mxPoint x="2439.4700000000003" y="1232.8599999999994" as="sourcePoint" />
            <mxPoint x="2406.109127034773" y="1141.2132034355782" as="targetPoint" />
          </mxGeometry>
        </mxCell>
        <mxCell id="kQ1VNpQFWJNkG35Z44nr-1" value="PlayerID" style="ellipse;whiteSpace=wrap;html=1;" parent="1" vertex="1">
          <mxGeometry x="1785.5300000000002" y="1669.9999999999995" width="110" height="60" as="geometry" />
        </mxCell>
        <mxCell id="kQ1VNpQFWJNkG35Z44nr-2" value="" style="endArrow=none;html=1;rounded=0;entryX=1;entryY=0;entryDx=0;entryDy=0;exitX=-0.022;exitY=0.519;exitDx=0;exitDy=0;exitPerimeter=0;" parent="1" source="kQ1VNpQFWJNkG35Z44nr-1" target="9V06vK_lk5y7Zd8M0cyD-81" edge="1">
          <mxGeometry width="50" height="50" relative="1" as="geometry">
            <mxPoint x="1732.5000000000002" y="1700" as="sourcePoint" />
            <mxPoint x="1702.5000000000002" y="1770" as="targetPoint" />
          </mxGeometry>
        </mxCell>
        <mxCell id="kQ1VNpQFWJNkG35Z44nr-10" value="" style="endArrow=none;html=1;rounded=0;entryX=0.25;entryY=1;entryDx=0;entryDy=0;exitX=0.5;exitY=0;exitDx=0;exitDy=0;" parent="1" source="8cQpjbH3px4sbL6R60Pa-8" target="9V06vK_lk5y7Zd8M0cyD-168" edge="1">
          <mxGeometry width="50" height="50" relative="1" as="geometry">
            <mxPoint x="1635" y="1409.9999999999995" as="sourcePoint" />
            <mxPoint x="2629.4700000000003" y="1082.8599999999994" as="targetPoint" />
          </mxGeometry>
        </mxCell>
        <mxCell id="kQ1VNpQFWJNkG35Z44nr-13" value="" style="endArrow=none;html=1;rounded=0;exitX=0.75;exitY=1;exitDx=0;exitDy=0;entryX=0.466;entryY=-0.026;entryDx=0;entryDy=0;entryPerimeter=0;" parent="1" source="9V06vK_lk5y7Zd8M0cyD-81" target="8cQpjbH3px4sbL6R60Pa-16" edge="1">
          <mxGeometry width="50" height="50" relative="1" as="geometry">
            <mxPoint x="1747.5000000000002" y="1810" as="sourcePoint" />
            <mxPoint x="1737" y="1890" as="targetPoint" />
          </mxGeometry>
        </mxCell>
        <mxCell id="kQ1VNpQFWJNkG35Z44nr-15" value="" style="endArrow=none;html=1;rounded=0;entryX=0.5;entryY=1;entryDx=0;entryDy=0;exitX=0.5;exitY=0;exitDx=0;exitDy=0;" parent="1" source="8cQpjbH3px4sbL6R60Pa-15" target="9V06vK_lk5y7Zd8M0cyD-81" edge="1">
          <mxGeometry width="50" height="50" relative="1" as="geometry">
            <mxPoint x="1610" y="1890" as="sourcePoint" />
            <mxPoint x="1612.5" y="1850" as="targetPoint" />
          </mxGeometry>
        </mxCell>
        <mxCell id="HdnHEaUyddr8RUYbK9ov-2" value="ChargePerDay" style="ellipse;whiteSpace=wrap;html=1;" parent="1" vertex="1">
          <mxGeometry x="1392.5" y="1222.5" width="105" height="60" as="geometry" />
        </mxCell>
        <mxCell id="HdnHEaUyddr8RUYbK9ov-3" value="" style="endArrow=none;html=1;rounded=0;exitX=1;exitY=0.5;exitDx=0;exitDy=0;entryX=0;entryY=0.5;entryDx=0;entryDy=0;" parent="1" source="HdnHEaUyddr8RUYbK9ov-2" target="9V06vK_lk5y7Zd8M0cyD-168" edge="1">
          <mxGeometry width="50" height="50" relative="1" as="geometry">
            <mxPoint x="1443.0299999999997" y="1316.7499999999995" as="sourcePoint" />
            <mxPoint x="1593.0299999999997" y="1288.7499999999995" as="targetPoint" />
          </mxGeometry>
        </mxCell>
        <mxCell id="HdnHEaUyddr8RUYbK9ov-5" value="" style="endArrow=none;html=1;rounded=0;entryX=0.5;entryY=1;entryDx=0;entryDy=0;exitX=0.615;exitY=0.029;exitDx=0;exitDy=0;exitPerimeter=0;" parent="1" source="9V06vK_lk5y7Zd8M0cyD-18" target="8cQpjbH3px4sbL6R60Pa-19" edge="1">
          <mxGeometry width="50" height="50" relative="1" as="geometry">
            <mxPoint x="1173" y="540" as="sourcePoint" />
            <mxPoint x="1275" y="650" as="targetPoint" />
          </mxGeometry>
        </mxCell>
        <mxCell id="HdnHEaUyddr8RUYbK9ov-9" value="ReservationStatus" style="ellipse;whiteSpace=wrap;html=1;" parent="1" vertex="1">
          <mxGeometry x="2100" y="350" width="110" height="60" as="geometry" />
        </mxCell>
        <mxCell id="HdnHEaUyddr8RUYbK9ov-10" value="" style="endArrow=none;html=1;rounded=0;entryX=1;entryY=0;entryDx=0;entryDy=0;exitX=0;exitY=1;exitDx=0;exitDy=0;" parent="1" source="HdnHEaUyddr8RUYbK9ov-9" edge="1">
          <mxGeometry width="50" height="50" relative="1" as="geometry">
            <mxPoint x="2160" y="490" as="sourcePoint" />
            <mxPoint x="1990" y="430" as="targetPoint" />
          </mxGeometry>
        </mxCell>
        <mxCell id="HdnHEaUyddr8RUYbK9ov-11" value="StoreID" style="ellipse;whiteSpace=wrap;html=1;" parent="1" vertex="1">
          <mxGeometry x="1670" y="390" width="110" height="60" as="geometry" />
        </mxCell>
        <mxCell id="HdnHEaUyddr8RUYbK9ov-12" value="" style="endArrow=none;html=1;rounded=0;entryX=1;entryY=0.5;entryDx=0;entryDy=0;exitX=0;exitY=0.25;exitDx=0;exitDy=0;" parent="1" source="uRNuQ10hfMt6JlkLjQdu-1" target="HdnHEaUyddr8RUYbK9ov-11" edge="1">
          <mxGeometry width="50" height="50" relative="1" as="geometry">
            <mxPoint x="1890.8695652173915" y="439.56521739130426" as="sourcePoint" />
            <mxPoint x="1810" y="490" as="targetPoint" />
          </mxGeometry>
        </mxCell>
        <mxCell id="HdnHEaUyddr8RUYbK9ov-13" value="" style="endArrow=none;html=1;rounded=0;entryX=0;entryY=0.5;entryDx=0;entryDy=0;" parent="1" target="9V06vK_lk5y7Zd8M0cyD-4" edge="1">
          <mxGeometry width="50" height="50" relative="1" as="geometry">
            <mxPoint x="1280" y="190" as="sourcePoint" />
            <mxPoint x="1560" y="480" as="targetPoint" />
          </mxGeometry>
        </mxCell>
        <mxCell id="HdnHEaUyddr8RUYbK9ov-14" value="FirstName" style="ellipse;whiteSpace=wrap;html=1;" parent="1" vertex="1">
          <mxGeometry x="1180" y="70" width="110" height="60" as="geometry" />
        </mxCell>
        <mxCell id="HdnHEaUyddr8RUYbK9ov-15" value="LastName" style="ellipse;whiteSpace=wrap;html=1;" parent="1" vertex="1">
          <mxGeometry x="1170" y="160" width="110" height="60" as="geometry" />
        </mxCell>
        <mxCell id="HdnHEaUyddr8RUYbK9ov-16" value="" style="endArrow=none;html=1;rounded=0;entryX=1;entryY=0.5;entryDx=0;entryDy=0;exitX=0;exitY=0.5;exitDx=0;exitDy=0;" parent="1" source="9V06vK_lk5y7Zd8M0cyD-4" target="HdnHEaUyddr8RUYbK9ov-14" edge="1">
          <mxGeometry width="50" height="50" relative="1" as="geometry">
            <mxPoint x="1290" y="200" as="sourcePoint" />
            <mxPoint x="1370" y="140" as="targetPoint" />
          </mxGeometry>
        </mxCell>
        <mxCell id="HdnHEaUyddr8RUYbK9ov-25" value="" style="endArrow=none;html=1;rounded=0;entryX=0.25;entryY=1;entryDx=0;entryDy=0;exitX=0.5;exitY=0;exitDx=0;exitDy=0;" parent="1" source="9V06vK_lk5y7Zd8M0cyD-17" target="eiJciB9B7HkE7zY7H2Gf-1" edge="1">
          <mxGeometry width="50" height="50" relative="1" as="geometry">
            <mxPoint x="1620" y="150" as="sourcePoint" />
            <mxPoint x="1620" y="240" as="targetPoint" />
          </mxGeometry>
        </mxCell>
        <mxCell id="HdnHEaUyddr8RUYbK9ov-90" value="1" style="edgeLabel;html=1;align=center;verticalAlign=middle;resizable=0;points=[];" parent="HdnHEaUyddr8RUYbK9ov-25" vertex="1" connectable="0">
          <mxGeometry x="0.6546" y="1" relative="1" as="geometry">
            <mxPoint x="-277" y="82" as="offset" />
          </mxGeometry>
        </mxCell>
        <mxCell id="HdnHEaUyddr8RUYbK9ov-53" value="" style="endArrow=none;html=1;rounded=0;entryX=0.75;entryY=1;entryDx=0;entryDy=0;exitX=0.5;exitY=0;exitDx=0;exitDy=0;" parent="1" source="uRNuQ10hfMt6JlkLjQdu-1" target="eiJciB9B7HkE7zY7H2Gf-1" edge="1">
          <mxGeometry width="50" height="50" relative="1" as="geometry">
            <mxPoint x="2150" y="540" as="sourcePoint" />
            <mxPoint x="1620" y="320" as="targetPoint" />
          </mxGeometry>
        </mxCell>
        <mxCell id="HdnHEaUyddr8RUYbK9ov-98" value="1" style="edgeLabel;html=1;align=center;verticalAlign=middle;resizable=0;points=[];" parent="HdnHEaUyddr8RUYbK9ov-53" vertex="1" connectable="0">
          <mxGeometry x="0.3295" relative="1" as="geometry">
            <mxPoint x="156" y="53" as="offset" />
          </mxGeometry>
        </mxCell>
        <mxCell id="HdnHEaUyddr8RUYbK9ov-69" value="" style="endArrow=none;html=1;rounded=0;exitX=1;exitY=0.5;exitDx=0;exitDy=0;entryX=1;entryY=0;entryDx=0;entryDy=0;" parent="1" source="9V06vK_lk5y7Zd8M0cyD-173" target="9V06vK_lk5y7Zd8M0cyD-168" edge="1">
          <mxGeometry width="50" height="50" relative="1" as="geometry">
            <mxPoint x="1685.5" y="1374.25" as="sourcePoint" />
            <mxPoint x="1688.5" y="1312.25" as="targetPoint" />
          </mxGeometry>
        </mxCell>
        <mxCell id="HdnHEaUyddr8RUYbK9ov-70" value="" style="endArrow=none;html=1;rounded=0;exitX=1;exitY=0.75;exitDx=0;exitDy=0;entryX=0;entryY=0.5;entryDx=0;entryDy=0;" parent="1" source="9V06vK_lk5y7Zd8M0cyD-18" target="9V06vK_lk5y7Zd8M0cyD-198" edge="1">
          <mxGeometry width="50" height="50" relative="1" as="geometry">
            <mxPoint x="1140" y="670" as="sourcePoint" />
            <mxPoint x="1250" y="950" as="targetPoint" />
            <Array as="points">
              <mxPoint x="1350" y="825" />
            </Array>
          </mxGeometry>
        </mxCell>
        <mxCell id="HdnHEaUyddr8RUYbK9ov-93" value="1" style="edgeLabel;html=1;align=center;verticalAlign=middle;resizable=0;points=[];" parent="HdnHEaUyddr8RUYbK9ov-70" vertex="1" connectable="0">
          <mxGeometry x="-0.1515" y="-3" relative="1" as="geometry">
            <mxPoint x="316" y="-8" as="offset" />
          </mxGeometry>
        </mxCell>
        <mxCell id="HdnHEaUyddr8RUYbK9ov-79" value="" style="endArrow=none;html=1;rounded=0;exitX=0.5;exitY=0;exitDx=0;exitDy=0;entryX=0.5;entryY=1;entryDx=0;entryDy=0;" parent="1" source="9V06vK_lk5y7Zd8M0cyD-168" target="9V06vK_lk5y7Zd8M0cyD-198" edge="1">
          <mxGeometry width="50" height="50" relative="1" as="geometry">
            <mxPoint x="2258" y="1462.5" as="sourcePoint" />
            <mxPoint x="1242.5" y="922.5" as="targetPoint" />
          </mxGeometry>
        </mxCell>
        <mxCell id="HdnHEaUyddr8RUYbK9ov-96" value="1" style="edgeLabel;html=1;align=center;verticalAlign=middle;resizable=0;points=[];" parent="HdnHEaUyddr8RUYbK9ov-79" vertex="1" connectable="0">
          <mxGeometry x="-0.0727" relative="1" as="geometry">
            <mxPoint x="139" y="-183" as="offset" />
          </mxGeometry>
        </mxCell>
        <mxCell id="HdnHEaUyddr8RUYbK9ov-88" style="edgeStyle=none;rounded=0;orthogonalLoop=1;jettySize=auto;html=1;entryX=0;entryY=1;entryDx=0;entryDy=0;" parent="1" edge="1">
          <mxGeometry relative="1" as="geometry">
            <mxPoint x="2405.8078945667407" y="1141.0476121771208" as="sourcePoint" />
            <mxPoint x="2406.109127034773" y="1141.2132034355782" as="targetPoint" />
          </mxGeometry>
        </mxCell>
        <mxCell id="HdnHEaUyddr8RUYbK9ov-95" value="(1,10)" style="text;html=1;align=center;verticalAlign=middle;resizable=0;points=[];autosize=1;strokeColor=none;fillColor=none;" parent="1" vertex="1">
          <mxGeometry x="1970" y="865" width="50" height="30" as="geometry" />
        </mxCell>
        <mxCell id="HdnHEaUyddr8RUYbK9ov-97" value="(1,1)" style="text;html=1;align=center;verticalAlign=middle;resizable=0;points=[];autosize=1;strokeColor=none;fillColor=none;" parent="1" vertex="1">
          <mxGeometry x="1895.53" y="870" width="50" height="30" as="geometry" />
        </mxCell>
        <mxCell id="HdnHEaUyddr8RUYbK9ov-100" value="(1,10)" style="text;html=1;align=center;verticalAlign=middle;resizable=0;points=[];autosize=1;strokeColor=none;fillColor=none;" parent="1" vertex="1">
          <mxGeometry x="1910" y="490" width="50" height="30" as="geometry" />
        </mxCell>
        <mxCell id="uRNuQ10hfMt6JlkLjQdu-1" value="RESERVES" style="shape=associativeEntity;whiteSpace=wrap;html=1;align=center;" parent="1" vertex="1">
          <mxGeometry x="1880" y="420" width="140" height="60" as="geometry" />
        </mxCell>
        <mxCell id="8cQpjbH3px4sbL6R60Pa-1" value="Phone" style="ellipse;shape=doubleEllipse;margin=3;whiteSpace=wrap;html=1;align=center;" vertex="1" parent="1">
          <mxGeometry x="1550" y="90" width="120" height="60" as="geometry" />
        </mxCell>
        <mxCell id="8cQpjbH3px4sbL6R60Pa-5" value="" style="endArrow=none;html=1;rounded=0;entryX=0.5;entryY=0;entryDx=0;entryDy=0;exitX=0.25;exitY=1;exitDx=0;exitDy=0;" edge="1" parent="1" source="9V06vK_lk5y7Zd8M0cyD-123" target="8cQpjbH3px4sbL6R60Pa-10">
          <mxGeometry width="50" height="50" relative="1" as="geometry">
            <mxPoint x="2218" y="1251" as="sourcePoint" />
            <mxPoint x="2074.4700000000003" y="1354.1099999999997" as="targetPoint" />
          </mxGeometry>
        </mxCell>
        <mxCell id="8cQpjbH3px4sbL6R60Pa-8" value="DiscountApplied" style="ellipse;whiteSpace=wrap;html=1;align=center;dashed=1;" vertex="1" parent="1">
          <mxGeometry x="1580" y="1383.75" width="110" height="60" as="geometry" />
        </mxCell>
        <mxCell id="8cQpjbH3px4sbL6R60Pa-10" value="DiscountApplied" style="ellipse;whiteSpace=wrap;html=1;align=center;dashed=1;" vertex="1" parent="1">
          <mxGeometry x="2100" y="1372.6799999999998" width="110" height="60" as="geometry" />
        </mxCell>
        <mxCell id="8cQpjbH3px4sbL6R60Pa-11" value="ChargePerDay" style="ellipse;whiteSpace=wrap;html=1;align=center;dashed=1;" vertex="1" parent="1">
          <mxGeometry x="2450" y="1201.2500000000002" width="110" height="60" as="geometry" />
        </mxCell>
        <mxCell id="8cQpjbH3px4sbL6R60Pa-12" value="LeadActors" style="ellipse;shape=doubleEllipse;margin=3;whiteSpace=wrap;html=1;align=center;" vertex="1" parent="1">
          <mxGeometry x="2390" y="1073.7500000000002" width="110" height="60" as="geometry" />
        </mxCell>
        <mxCell id="8cQpjbH3px4sbL6R60Pa-13" value="Genre" style="ellipse;shape=doubleEllipse;margin=3;whiteSpace=wrap;html=1;align=center;" vertex="1" parent="1">
          <mxGeometry x="2204.47" y="1343.75" width="100" height="56.25" as="geometry" />
        </mxCell>
        <mxCell id="8cQpjbH3px4sbL6R60Pa-14" value="MovieFormat" style="ellipse;shape=doubleEllipse;margin=3;whiteSpace=wrap;html=1;align=center;" vertex="1" parent="1">
          <mxGeometry x="2299.47" y="1020.0000000000001" width="110" height="60" as="geometry" />
        </mxCell>
        <mxCell id="8cQpjbH3px4sbL6R60Pa-15" value="ExcessCopies" style="ellipse;whiteSpace=wrap;html=1;align=center;dashed=1;" vertex="1" parent="1">
          <mxGeometry x="1538.03" y="1890" width="115" height="60" as="geometry" />
        </mxCell>
        <mxCell id="8cQpjbH3px4sbL6R60Pa-16" value="DerivedCopies" style="ellipse;whiteSpace=wrap;html=1;align=center;dashed=1;" vertex="1" parent="1">
          <mxGeometry x="1680" y="1870" width="115" height="60" as="geometry" />
        </mxCell>
        <mxCell id="8cQpjbH3px4sbL6R60Pa-17" value="" style="endArrow=none;html=1;rounded=0;entryX=0;entryY=0;entryDx=0;entryDy=0;exitX=1;exitY=1;exitDx=0;exitDy=0;" edge="1" parent="1" source="8cQpjbH3px4sbL6R60Pa-18" target="9V06vK_lk5y7Zd8M0cyD-18">
          <mxGeometry width="50" height="50" relative="1" as="geometry">
            <mxPoint x="1020" y="690" as="sourcePoint" />
            <mxPoint x="1001.46" y="660" as="targetPoint" />
          </mxGeometry>
        </mxCell>
        <mxCell id="8cQpjbH3px4sbL6R60Pa-18" value="LateFee" style="ellipse;whiteSpace=wrap;html=1;align=center;dashed=1;" vertex="1" parent="1">
          <mxGeometry x="950" y="660" width="110" height="60" as="geometry" />
        </mxCell>
        <mxCell id="8cQpjbH3px4sbL6R60Pa-19" value="RentalPrice" style="ellipse;whiteSpace=wrap;html=1;align=center;dashed=1;" vertex="1" parent="1">
          <mxGeometry x="1230" y="580" width="110" height="60" as="geometry" />
        </mxCell>
        <mxCell id="8cQpjbH3px4sbL6R60Pa-20" value="PlayerType" style="ellipse;shape=doubleEllipse;margin=3;whiteSpace=wrap;html=1;align=center;" vertex="1" parent="1">
          <mxGeometry x="1810" y="1236.25" width="120" height="60" as="geometry" />
        </mxCell>
        <mxCell id="8cQpjbH3px4sbL6R60Pa-21" value="ReturnStatus" style="ellipse;whiteSpace=wrap;html=1;align=center;dashed=1;" vertex="1" parent="1">
          <mxGeometry x="1382.23" y="737.5" width="110" height="60" as="geometry" />
        </mxCell>
        <mxCell id="8cQpjbH3px4sbL6R60Pa-22" value="" style="shape=link;html=1;rounded=0;entryX=0.5;entryY=1;entryDx=0;entryDy=0;exitX=0.5;exitY=0;exitDx=0;exitDy=0;" edge="1" parent="1" source="9V06vK_lk5y7Zd8M0cyD-18" target="9V06vK_lk5y7Zd8M0cyD-17">
          <mxGeometry relative="1" as="geometry">
            <mxPoint x="1380" y="790" as="sourcePoint" />
            <mxPoint x="1540" y="790" as="targetPoint" />
          </mxGeometry>
        </mxCell>
        <mxCell id="8cQpjbH3px4sbL6R60Pa-23" value="N" style="resizable=0;html=1;whiteSpace=wrap;align=right;verticalAlign=bottom;" connectable="0" vertex="1" parent="8cQpjbH3px4sbL6R60Pa-22">
          <mxGeometry x="1" relative="1" as="geometry">
            <mxPoint x="17" y="30" as="offset" />
          </mxGeometry>
        </mxCell>
        <mxCell id="8cQpjbH3px4sbL6R60Pa-24" value="" style="shape=link;html=1;rounded=0;entryX=0.5;entryY=1;entryDx=0;entryDy=0;exitX=0.5;exitY=0;exitDx=0;exitDy=0;" edge="1" parent="1" source="9V06vK_lk5y7Zd8M0cyD-58" target="9V06vK_lk5y7Zd8M0cyD-18">
          <mxGeometry relative="1" as="geometry">
            <mxPoint x="1187.23" y="1176.25" as="sourcePoint" />
            <mxPoint x="1062.23" y="991.25" as="targetPoint" />
          </mxGeometry>
        </mxCell>
        <mxCell id="8cQpjbH3px4sbL6R60Pa-25" value="M" style="resizable=0;html=1;whiteSpace=wrap;align=right;verticalAlign=bottom;" connectable="0" vertex="1" parent="8cQpjbH3px4sbL6R60Pa-24">
          <mxGeometry x="1" relative="1" as="geometry">
            <mxPoint x="-17" y="205" as="offset" />
          </mxGeometry>
        </mxCell>
        <mxCell id="8cQpjbH3px4sbL6R60Pa-26" value="" style="shape=link;html=1;rounded=0;exitX=0.5;exitY=0;exitDx=0;exitDy=0;entryX=0.5;entryY=1;entryDx=0;entryDy=0;" edge="1" parent="1" source="9V06vK_lk5y7Zd8M0cyD-65" target="9V06vK_lk5y7Zd8M0cyD-58">
          <mxGeometry relative="1" as="geometry">
            <mxPoint x="1187" y="1064" as="sourcePoint" />
            <mxPoint x="1110" y="1270" as="targetPoint" />
          </mxGeometry>
        </mxCell>
        <mxCell id="8cQpjbH3px4sbL6R60Pa-27" value="M" style="resizable=0;html=1;whiteSpace=wrap;align=right;verticalAlign=bottom;" connectable="0" vertex="1" parent="8cQpjbH3px4sbL6R60Pa-26">
          <mxGeometry x="1" relative="1" as="geometry">
            <mxPoint x="13" y="29" as="offset" />
          </mxGeometry>
        </mxCell>
        <mxCell id="8cQpjbH3px4sbL6R60Pa-28" value="" style="shape=link;html=1;rounded=0;entryX=0.5;entryY=1;entryDx=0;entryDy=0;exitX=0;exitY=0;exitDx=0;exitDy=0;" edge="1" parent="1" source="9V06vK_lk5y7Zd8M0cyD-193" target="9V06vK_lk5y7Zd8M0cyD-65">
          <mxGeometry relative="1" as="geometry">
            <mxPoint x="1100" y="1410" as="sourcePoint" />
            <mxPoint x="1260" y="1410" as="targetPoint" />
          </mxGeometry>
        </mxCell>
        <mxCell id="8cQpjbH3px4sbL6R60Pa-29" value="1" style="resizable=0;html=1;whiteSpace=wrap;align=right;verticalAlign=bottom;" connectable="0" vertex="1" parent="8cQpjbH3px4sbL6R60Pa-28">
          <mxGeometry x="1" relative="1" as="geometry">
            <mxPoint x="114" y="212" as="offset" />
          </mxGeometry>
        </mxCell>
        <mxCell id="8cQpjbH3px4sbL6R60Pa-30" value="" style="shape=link;html=1;rounded=0;exitX=0;exitY=0;exitDx=0;exitDy=0;entryX=0.5;entryY=1;entryDx=0;entryDy=0;" edge="1" parent="1" source="9V06vK_lk5y7Zd8M0cyD-81" target="9V06vK_lk5y7Zd8M0cyD-193">
          <mxGeometry relative="1" as="geometry">
            <mxPoint x="1570" y="1670" as="sourcePoint" />
            <mxPoint x="1307" y="1690" as="targetPoint" />
          </mxGeometry>
        </mxCell>
        <mxCell id="8cQpjbH3px4sbL6R60Pa-31" value="1" style="resizable=0;html=1;whiteSpace=wrap;align=right;verticalAlign=bottom;" connectable="0" vertex="1" parent="8cQpjbH3px4sbL6R60Pa-30">
          <mxGeometry x="1" relative="1" as="geometry">
            <mxPoint x="43" y="9" as="offset" />
          </mxGeometry>
        </mxCell>
        <mxCell id="8cQpjbH3px4sbL6R60Pa-32" value="" style="shape=link;html=1;rounded=0;entryX=0.5;entryY=1;entryDx=0;entryDy=0;exitX=0.75;exitY=0;exitDx=0;exitDy=0;" edge="1" parent="1" source="9V06vK_lk5y7Zd8M0cyD-81" target="9V06vK_lk5y7Zd8M0cyD-150">
          <mxGeometry relative="1" as="geometry">
            <mxPoint x="1720" y="1610" as="sourcePoint" />
            <mxPoint x="1880" y="1610" as="targetPoint" />
          </mxGeometry>
        </mxCell>
        <mxCell id="8cQpjbH3px4sbL6R60Pa-33" value="M" style="resizable=0;html=1;whiteSpace=wrap;align=right;verticalAlign=bottom;" connectable="0" vertex="1" parent="8cQpjbH3px4sbL6R60Pa-32">
          <mxGeometry x="1" relative="1" as="geometry">
            <mxPoint x="-35" y="7" as="offset" />
          </mxGeometry>
        </mxCell>
        <mxCell id="8cQpjbH3px4sbL6R60Pa-36" value="" style="shape=link;html=1;rounded=0;entryX=0;entryY=1;entryDx=0;entryDy=0;exitX=1;exitY=0;exitDx=0;exitDy=0;" edge="1" parent="1" source="9V06vK_lk5y7Zd8M0cyD-150" target="9V06vK_lk5y7Zd8M0cyD-123">
          <mxGeometry relative="1" as="geometry">
            <mxPoint x="1840" y="1450" as="sourcePoint" />
            <mxPoint x="2000" y="1450" as="targetPoint" />
          </mxGeometry>
        </mxCell>
        <mxCell id="8cQpjbH3px4sbL6R60Pa-37" value="N" style="resizable=0;html=1;whiteSpace=wrap;align=right;verticalAlign=bottom;" connectable="0" vertex="1" parent="8cQpjbH3px4sbL6R60Pa-36">
          <mxGeometry x="1" relative="1" as="geometry">
            <mxPoint x="-180" y="278" as="offset" />
          </mxGeometry>
        </mxCell>
        <mxCell id="8cQpjbH3px4sbL6R60Pa-38" value="" style="shape=link;html=1;rounded=0;entryX=0;entryY=0;entryDx=0;entryDy=0;exitX=1;exitY=1;exitDx=0;exitDy=0;" edge="1" parent="1" source="9V06vK_lk5y7Zd8M0cyD-168" target="9V06vK_lk5y7Zd8M0cyD-150">
          <mxGeometry relative="1" as="geometry">
            <mxPoint x="1732.5" y="1520" as="sourcePoint" />
            <mxPoint x="1892.5" y="1520" as="targetPoint" />
          </mxGeometry>
        </mxCell>
        <mxCell id="8cQpjbH3px4sbL6R60Pa-39" value="N" style="resizable=0;html=1;whiteSpace=wrap;align=right;verticalAlign=bottom;" connectable="0" vertex="1" parent="8cQpjbH3px4sbL6R60Pa-38">
          <mxGeometry x="1" relative="1" as="geometry">
            <mxPoint x="68" y="-20" as="offset" />
          </mxGeometry>
        </mxCell>
        <mxCell id="8cQpjbH3px4sbL6R60Pa-40" value="" style="shape=link;html=1;rounded=0;entryX=1;entryY=1;entryDx=0;entryDy=0;exitX=0;exitY=0.5;exitDx=0;exitDy=0;" edge="1" parent="1" source="9V06vK_lk5y7Zd8M0cyD-123" target="9V06vK_lk5y7Zd8M0cyD-198">
          <mxGeometry relative="1" as="geometry">
            <mxPoint x="2120" y="1220" as="sourcePoint" />
            <mxPoint x="2280" y="1220" as="targetPoint" />
          </mxGeometry>
        </mxCell>
        <mxCell id="8cQpjbH3px4sbL6R60Pa-41" value="N" style="resizable=0;html=1;whiteSpace=wrap;align=right;verticalAlign=bottom;" connectable="0" vertex="1" parent="8cQpjbH3px4sbL6R60Pa-40">
          <mxGeometry x="1" relative="1" as="geometry">
            <mxPoint x="-2" y="33" as="offset" />
          </mxGeometry>
        </mxCell>
        <mxCell id="8cQpjbH3px4sbL6R60Pa-42" value="" style="shape=link;html=1;rounded=0;exitX=0.5;exitY=1;exitDx=0;exitDy=0;entryX=0.25;entryY=0;entryDx=0;entryDy=0;" edge="1" parent="1" source="uRNuQ10hfMt6JlkLjQdu-1" target="9V06vK_lk5y7Zd8M0cyD-123">
          <mxGeometry relative="1" as="geometry">
            <mxPoint x="1780" y="870" as="sourcePoint" />
            <mxPoint x="1940" y="870" as="targetPoint" />
          </mxGeometry>
        </mxCell>
        <mxCell id="8cQpjbH3px4sbL6R60Pa-43" value="M" style="resizable=0;html=1;whiteSpace=wrap;align=right;verticalAlign=bottom;" connectable="0" vertex="1" parent="8cQpjbH3px4sbL6R60Pa-42">
          <mxGeometry x="1" relative="1" as="geometry">
            <mxPoint x="-194" y="-658" as="offset" />
          </mxGeometry>
        </mxCell>
        <mxCell id="8cQpjbH3px4sbL6R60Pa-45" value="ReturnDate" style="ellipse;whiteSpace=wrap;html=1;" vertex="1" parent="1">
          <mxGeometry x="1050" y="610" width="110" height="60" as="geometry" />
        </mxCell>
        <mxCell id="8cQpjbH3px4sbL6R60Pa-46" value="" style="endArrow=none;html=1;rounded=0;entryX=0.25;entryY=0;entryDx=0;entryDy=0;exitX=0.5;exitY=1;exitDx=0;exitDy=0;" edge="1" parent="1" source="8cQpjbH3px4sbL6R60Pa-45" target="9V06vK_lk5y7Zd8M0cyD-18">
          <mxGeometry width="50" height="50" relative="1" as="geometry">
            <mxPoint x="1030" y="700" as="sourcePoint" />
            <mxPoint x="1137" y="775" as="targetPoint" />
          </mxGeometry>
        </mxCell>
        <mxCell id="8cQpjbH3px4sbL6R60Pa-47" value="MovieID" style="ellipse;whiteSpace=wrap;html=1;" vertex="1" parent="1">
          <mxGeometry x="924.46" y="737.5" width="110" height="60" as="geometry" />
        </mxCell>
        <mxCell id="8cQpjbH3px4sbL6R60Pa-49" value="PlayerID" style="ellipse;whiteSpace=wrap;html=1;" vertex="1" parent="1">
          <mxGeometry x="1252.23" y="900" width="110" height="60" as="geometry" />
        </mxCell>
        <mxCell id="8cQpjbH3px4sbL6R60Pa-50" value="" style="endArrow=none;html=1;rounded=0;entryX=0.5;entryY=0;entryDx=0;entryDy=0;exitX=0.75;exitY=1;exitDx=0;exitDy=0;" edge="1" parent="1" source="9V06vK_lk5y7Zd8M0cyD-18" target="8cQpjbH3px4sbL6R60Pa-49">
          <mxGeometry width="50" height="50" relative="1" as="geometry">
            <mxPoint x="1317" y="855" as="sourcePoint" />
            <mxPoint x="1358" y="890" as="targetPoint" />
          </mxGeometry>
        </mxCell>
      </root>
    </mxGraphModel>
  </diagram>
</mxfile>
